<svg width="56" height="31" viewBox="0 0 56 31" fill="none" xmlns="http://www.w3.org/2000/svg">
<g clip-path="url(#clip0_60_2775)">
<path d="M23.7962 17.0633C21.809 17.1163 19.8727 17.2752 17.8854 17.4342C17.7325 17.4342 17.6306 17.4342 17.4777 17.4872C14.879 17.7521 12.2293 18.0701 9.63062 18.494C9.63062 18.494 10.4969 17.6462 11.5669 16.2154C12.7899 14.6257 14.2676 12.294 15.1848 9.48548C15.2357 9.32651 15.2867 9.16753 15.3376 8.95557C15.3376 8.95557 15.3886 9.11454 15.5414 9.32651C16.102 10.2804 17.7325 12.8769 20.3313 14.9436C21.3504 15.7915 22.5223 16.5333 23.7962 17.0633Z" fill="url(#paint0_linear_60_2775)"/>
<path d="M46.777 18.547C44.0254 18.0701 41.2738 17.7521 38.5222 17.4872C38.3694 17.4872 38.2675 17.4872 38.1146 17.4342C36.2802 17.2752 34.4967 17.1692 32.6624 17.0632C34.0381 16.4803 35.2611 15.6855 36.3311 14.7846C38.7261 12.8239 40.2547 10.4923 40.8662 9.48547C41.07 9.16752 41.121 9.00854 41.121 9.00854C41.1719 9.16752 41.2229 9.32649 41.2738 9.48547C42.1401 12.135 43.5159 14.4137 44.6878 16.0034C45.8089 17.5932 46.777 18.547 46.777 18.547Z" fill="url(#paint1_linear_60_2775)"/>
<path d="M52.7389 13.5128C51.3121 14.2017 48.1529 15.5265 44.637 16.0564C44.3822 16.1094 44.1274 16.1094 43.8726 16.1624C41.4268 16.3744 38.828 16.1624 36.2803 14.8906C33.7325 13.6188 31.1847 11.3402 28.7898 7.36583C28.535 6.8889 28.2803 6.41198 28.0255 5.93506C27.7707 6.46497 27.5159 6.99489 27.2612 7.47181C25.121 11.3402 22.7771 13.6718 20.3822 14.9966C17.7835 16.4274 15.0828 16.6393 12.4841 16.3744C12.1784 16.3214 11.9236 16.3214 11.6178 16.2684C8.05097 15.6855 4.73886 14.2547 3.31211 13.5658C2.80256 13.3009 2.54778 13.1419 2.49683 13.1419C2.7516 13.5128 2.95542 13.8308 3.2102 14.2017C3.2102 14.2017 3.2102 14.2017 3.2102 14.2547C6.11466 18.759 8.8153 23.3692 11.3121 28.0855C22.3694 26.2838 33.6306 26.2838 44.6879 28.0855C47.1847 23.3163 49.9363 18.6 52.9427 13.9898L52.9936 13.9368C53.1975 13.6718 53.3503 13.4069 53.5032 13.1419C53.5032 13.1419 53.2484 13.2479 52.7389 13.5128ZM9.37581 21.9385C9.07007 20.9316 8.76434 19.8718 8.40765 18.865C9.32485 19.4479 10.242 20.0838 11.1592 20.7197C11.465 21.7795 11.7707 22.7863 12.0255 23.8462C11.1592 23.1573 10.293 22.5214 9.37581 21.9385ZM18.1401 20.1898C17.9363 19.2889 17.7325 18.388 17.5287 17.4872C17.6815 17.4872 17.7835 17.4872 17.9363 17.4342C18.6497 17.9641 19.3631 18.547 20.0764 19.0769C20.2803 20.1368 20.535 21.1966 20.7389 22.2564C19.8217 21.5675 19.0064 20.8786 18.1401 20.1898ZM28.0255 24.3761C27.414 22.6804 26.8026 20.9846 26.1911 19.2889C26.8026 17.5932 27.414 15.8975 28.0255 14.2017C28.6879 15.8975 29.2994 17.5932 29.8599 19.2889C29.1975 20.9846 28.586 22.6804 28.0255 24.3761ZM37.9108 20.1898C37.0446 20.8786 36.1784 21.5675 35.3631 22.2564C35.5669 21.1966 35.7707 20.1368 36.0255 19.0769C36.7389 18.494 37.4013 17.9641 38.1656 17.4342C38.3185 17.4342 38.4204 17.4342 38.5733 17.4872C38.3185 18.388 38.1147 19.2889 37.9108 20.1898ZM46.7261 21.3556C45.8089 21.9385 44.8917 22.5744 44.0255 23.2103C44.3312 22.1504 44.586 21.1436 44.8917 20.0838C45.8089 19.4479 46.7261 18.865 47.6433 18.2291C47.3885 19.2889 47.0319 20.2957 46.7261 21.3556Z" fill="url(#paint2_linear_60_2775)"/>
<path d="M45.2484 31C33.8343 29.0394 22.2165 29.0394 10.8025 31C10.4458 31.053 10.0891 30.7881 9.98721 30.4171C9.93625 30.0462 10.191 29.6223 10.5477 29.5693C22.1146 27.6086 33.8853 27.6086 45.4522 29.5693C45.8089 29.6223 46.0636 29.9932 46.0127 30.4171C45.9617 30.7881 45.605 31.053 45.2484 31Z" fill="url(#paint3_linear_60_2775)"/>
<path d="M24.9683 4.29231C25.9364 2.86154 26.9046 1.43077 27.9746 0C28.9937 1.43077 30.0128 2.86154 30.981 4.29231C29.9619 5.67009 28.9428 7.10085 27.9746 8.53162C27.0065 7.10085 26.0383 5.72308 24.9683 4.29231Z" fill="url(#paint4_linear_60_2775)"/>
<path d="M0 9.53845C1.12102 10.0154 2.24204 10.4923 3.3121 10.9692C3.26115 12.082 3.26115 13.1949 3.26115 14.3077C2.19108 12.6649 1.12102 11.0752 0 9.53845Z" fill="url(#paint5_linear_60_2775)"/>
<path d="M56.0001 9.53845C54.8791 10.0154 53.7581 10.4923 52.688 10.9692C52.7389 12.082 52.7389 13.1949 52.7389 14.3077C53.809 12.6649 54.93 11.0752 56.0001 9.53845Z" fill="url(#paint6_linear_60_2775)"/>
<path d="M39.3376 6.78287C40.051 5.88202 40.8154 5.03416 41.5797 4.1333C42.1402 5.14014 42.7007 6.19997 43.2612 7.2068C42.4969 8.05467 41.7326 8.95552 41.0192 9.80339C40.4587 8.79655 39.8982 7.78971 39.3376 6.78287Z" fill="url(#paint7_linear_60_2775)"/>
<path d="M13.1465 7.04787C13.707 6.04103 14.2675 4.9812 14.828 3.97437C15.5923 4.87522 16.3567 5.72308 17.0701 6.62394C16.5095 7.63078 15.949 8.63761 15.3885 9.64445C14.6751 8.79659 13.9108 7.94872 13.1465 7.04787Z" fill="url(#paint8_linear_60_2775)"/>
<path d="M38.6235 17.0632C38.5727 17.2222 38.5727 17.3282 38.5218 17.4872C38.3691 17.4872 38.2674 17.4872 38.1147 17.4342C38.2674 17.3282 38.42 17.1692 38.6235 17.0632Z" fill="url(#paint9_linear_60_2775)"/>
<path d="M17.9356 17.4342C17.7829 17.4342 17.6812 17.4342 17.5285 17.4872C17.4776 17.3282 17.4776 17.2222 17.4268 17.0632C17.5794 17.1692 17.732 17.3282 17.9356 17.4342Z" fill="url(#paint10_linear_60_2775)"/>
</g>
<defs>
<linearGradient id="paint0_linear_60_2775" x1="16.7455" y1="-27.3671" x2="16.7455" y2="16.6908" gradientUnits="userSpaceOnUse">
<stop stop-color="#F2D977"/>
<stop offset="0.0380612" stop-color="#E8CB65"/>
<stop offset="0.1029" stop-color="#DAB74C"/>
<stop offset="0.1623" stop-color="#D2AB3D"/>
<stop offset="0.2107" stop-color="#CFA738"/>
<stop offset="0.3367" stop-color="#E1C863"/>
<stop offset="0.5566" stop-color="#FFFFAA"/>
<stop offset="0.6032" stop-color="#FEFBA5"/>
<stop offset="0.6607" stop-color="#FAF096"/>
<stop offset="0.7238" stop-color="#F3DD7D"/>
<stop offset="0.7905" stop-color="#EAC45A"/>
<stop offset="0.8437" stop-color="#E1AB39"/>
<stop offset="0.8874" stop-color="#D7A136"/>
<stop offset="0.9613" stop-color="#BD882D"/>
<stop offset="1" stop-color="#AC7828"/>
</linearGradient>
<linearGradient id="paint1_linear_60_2775" x1="39.7025" y1="-27.367" x2="39.7025" y2="16.6908" gradientUnits="userSpaceOnUse">
<stop stop-color="#F2D977"/>
<stop offset="0.0380612" stop-color="#E8CB65"/>
<stop offset="0.1029" stop-color="#DAB74C"/>
<stop offset="0.1623" stop-color="#D2AB3D"/>
<stop offset="0.2107" stop-color="#CFA738"/>
<stop offset="0.3367" stop-color="#E1C863"/>
<stop offset="0.5566" stop-color="#FFFFAA"/>
<stop offset="0.6032" stop-color="#FEFBA5"/>
<stop offset="0.6607" stop-color="#FAF096"/>
<stop offset="0.7238" stop-color="#F3DD7D"/>
<stop offset="0.7905" stop-color="#EAC45A"/>
<stop offset="0.8437" stop-color="#E1AB39"/>
<stop offset="0.8874" stop-color="#D7A136"/>
<stop offset="0.9613" stop-color="#BD882D"/>
<stop offset="1" stop-color="#AC7828"/>
</linearGradient>
<linearGradient id="paint2_linear_60_2775" x1="28.0112" y1="1.52373" x2="28.0112" y2="76.6964" gradientUnits="userSpaceOnUse">
<stop stop-color="#F2D977"/>
<stop offset="0.0380612" stop-color="#E8CB65"/>
<stop offset="0.1029" stop-color="#DAB74C"/>
<stop offset="0.1623" stop-color="#D2AB3D"/>
<stop offset="0.2107" stop-color="#CFA738"/>
<stop offset="0.3367" stop-color="#E1C863"/>
<stop offset="0.5566" stop-color="#FFFFAA"/>
<stop offset="0.6032" stop-color="#FEFBA5"/>
<stop offset="0.6607" stop-color="#FAF096"/>
<stop offset="0.7238" stop-color="#F3DD7D"/>
<stop offset="0.7905" stop-color="#EAC45A"/>
<stop offset="0.8437" stop-color="#E1AB39"/>
<stop offset="0.8874" stop-color="#D7A136"/>
<stop offset="0.9613" stop-color="#BD882D"/>
<stop offset="1" stop-color="#AC7828"/>
</linearGradient>
<linearGradient id="paint3_linear_60_2775" x1="28.0123" y1="20.7509" x2="28.0123" y2="57.7031" gradientUnits="userSpaceOnUse">
<stop stop-color="#F2D977"/>
<stop offset="0.0380612" stop-color="#E8CB65"/>
<stop offset="0.1029" stop-color="#DAB74C"/>
<stop offset="0.1623" stop-color="#D2AB3D"/>
<stop offset="0.2107" stop-color="#CFA738"/>
<stop offset="0.3367" stop-color="#E1C863"/>
<stop offset="0.5566" stop-color="#FFFFAA"/>
<stop offset="0.6032" stop-color="#FEFBA5"/>
<stop offset="0.6607" stop-color="#FAF096"/>
<stop offset="0.7238" stop-color="#F3DD7D"/>
<stop offset="0.7905" stop-color="#EAC45A"/>
<stop offset="0.8437" stop-color="#E1AB39"/>
<stop offset="0.8874" stop-color="#D7A136"/>
<stop offset="0.9613" stop-color="#BD882D"/>
<stop offset="1" stop-color="#AC7828"/>
</linearGradient>
<linearGradient id="paint4_linear_60_2775" x1="27.9763" y1="1.52366" x2="27.9763" y2="76.6965" gradientUnits="userSpaceOnUse">
<stop stop-color="#F2D977"/>
<stop offset="0.0380612" stop-color="#E8CB65"/>
<stop offset="0.1029" stop-color="#DAB74C"/>
<stop offset="0.1623" stop-color="#D2AB3D"/>
<stop offset="0.2107" stop-color="#CFA738"/>
<stop offset="0.3367" stop-color="#E1C863"/>
<stop offset="0.5566" stop-color="#FFFFAA"/>
<stop offset="0.6032" stop-color="#FEFBA5"/>
<stop offset="0.6607" stop-color="#FAF096"/>
<stop offset="0.7238" stop-color="#F3DD7D"/>
<stop offset="0.7905" stop-color="#EAC45A"/>
<stop offset="0.8437" stop-color="#E1AB39"/>
<stop offset="0.8874" stop-color="#D7A136"/>
<stop offset="0.9613" stop-color="#BD882D"/>
<stop offset="1" stop-color="#AC7828"/>
</linearGradient>
<linearGradient id="paint5_linear_60_2775" x1="1.66354" y1="1.52365" x2="1.66354" y2="76.6964" gradientUnits="userSpaceOnUse">
<stop stop-color="#F2D977"/>
<stop offset="0.0380612" stop-color="#E8CB65"/>
<stop offset="0.1029" stop-color="#DAB74C"/>
<stop offset="0.1623" stop-color="#D2AB3D"/>
<stop offset="0.2107" stop-color="#CFA738"/>
<stop offset="0.3367" stop-color="#E1C863"/>
<stop offset="0.5566" stop-color="#FFFFAA"/>
<stop offset="0.6032" stop-color="#FEFBA5"/>
<stop offset="0.6607" stop-color="#FAF096"/>
<stop offset="0.7238" stop-color="#F3DD7D"/>
<stop offset="0.7905" stop-color="#EAC45A"/>
<stop offset="0.8437" stop-color="#E1AB39"/>
<stop offset="0.8874" stop-color="#D7A136"/>
<stop offset="0.9613" stop-color="#BD882D"/>
<stop offset="1" stop-color="#AC7828"/>
</linearGradient>
<linearGradient id="paint6_linear_60_2775" x1="54.3566" y1="1.52371" x2="54.3566" y2="76.6963" gradientUnits="userSpaceOnUse">
<stop stop-color="#F2D977"/>
<stop offset="0.0380612" stop-color="#E8CB65"/>
<stop offset="0.1029" stop-color="#DAB74C"/>
<stop offset="0.1623" stop-color="#D2AB3D"/>
<stop offset="0.2107" stop-color="#CFA738"/>
<stop offset="0.3367" stop-color="#E1C863"/>
<stop offset="0.5566" stop-color="#FFFFAA"/>
<stop offset="0.6032" stop-color="#FEFBA5"/>
<stop offset="0.6607" stop-color="#FAF096"/>
<stop offset="0.7238" stop-color="#F3DD7D"/>
<stop offset="0.7905" stop-color="#EAC45A"/>
<stop offset="0.8437" stop-color="#E1AB39"/>
<stop offset="0.8874" stop-color="#D7A136"/>
<stop offset="0.9613" stop-color="#BD882D"/>
<stop offset="1" stop-color="#AC7828"/>
</linearGradient>
<linearGradient id="paint7_linear_60_2775" x1="41.2774" y1="-27.3671" x2="41.2774" y2="16.6907" gradientUnits="userSpaceOnUse">
<stop stop-color="#F2D977"/>
<stop offset="0.0380612" stop-color="#E8CB65"/>
<stop offset="0.1029" stop-color="#DAB74C"/>
<stop offset="0.1623" stop-color="#D2AB3D"/>
<stop offset="0.2107" stop-color="#CFA738"/>
<stop offset="0.3367" stop-color="#E1C863"/>
<stop offset="0.5566" stop-color="#FFFFAA"/>
<stop offset="0.6032" stop-color="#FEFBA5"/>
<stop offset="0.6607" stop-color="#FAF096"/>
<stop offset="0.7238" stop-color="#F3DD7D"/>
<stop offset="0.7905" stop-color="#EAC45A"/>
<stop offset="0.8437" stop-color="#E1AB39"/>
<stop offset="0.8874" stop-color="#D7A136"/>
<stop offset="0.9613" stop-color="#BD882D"/>
<stop offset="1" stop-color="#AC7828"/>
</linearGradient>
<linearGradient id="paint8_linear_60_2775" x1="15.115" y1="-27.3669" x2="15.115" y2="16.6907" gradientUnits="userSpaceOnUse">
<stop stop-color="#F2D977"/>
<stop offset="0.0380612" stop-color="#E8CB65"/>
<stop offset="0.1029" stop-color="#DAB74C"/>
<stop offset="0.1623" stop-color="#D2AB3D"/>
<stop offset="0.2107" stop-color="#CFA738"/>
<stop offset="0.3367" stop-color="#E1C863"/>
<stop offset="0.5566" stop-color="#FFFFAA"/>
<stop offset="0.6032" stop-color="#FEFBA5"/>
<stop offset="0.6607" stop-color="#FAF096"/>
<stop offset="0.7238" stop-color="#F3DD7D"/>
<stop offset="0.7905" stop-color="#EAC45A"/>
<stop offset="0.8437" stop-color="#E1AB39"/>
<stop offset="0.8874" stop-color="#D7A136"/>
<stop offset="0.9613" stop-color="#BD882D"/>
<stop offset="1" stop-color="#AC7828"/>
</linearGradient>
<linearGradient id="paint9_linear_60_2775" x1="38.356" y1="-20.257" x2="38.356" y2="29.9146" gradientUnits="userSpaceOnUse">
<stop stop-color="#F2D977"/>
<stop offset="0.0380612" stop-color="#E8CB65"/>
<stop offset="0.1029" stop-color="#DAB74C"/>
<stop offset="0.1623" stop-color="#D2AB3D"/>
<stop offset="0.2107" stop-color="#CFA738"/>
<stop offset="0.3367" stop-color="#E1C863"/>
<stop offset="0.5566" stop-color="#FFFFAA"/>
<stop offset="0.6032" stop-color="#FEFBA5"/>
<stop offset="0.6607" stop-color="#FAF096"/>
<stop offset="0.7238" stop-color="#F3DD7D"/>
<stop offset="0.7905" stop-color="#EAC45A"/>
<stop offset="0.8437" stop-color="#E1AB39"/>
<stop offset="0.8874" stop-color="#D7A136"/>
<stop offset="0.9613" stop-color="#BD882D"/>
<stop offset="1" stop-color="#AC7828"/>
</linearGradient>
<linearGradient id="paint10_linear_60_2775" x1="17.6641" y1="-20.2572" x2="17.6641" y2="29.9147" gradientUnits="userSpaceOnUse">
<stop stop-color="#F2D977"/>
<stop offset="0.0380612" stop-color="#E8CB65"/>
<stop offset="0.1029" stop-color="#DAB74C"/>
<stop offset="0.1623" stop-color="#D2AB3D"/>
<stop offset="0.2107" stop-color="#CFA738"/>
<stop offset="0.3367" stop-color="#E1C863"/>
<stop offset="0.5566" stop-color="#FFFFAA"/>
<stop offset="0.6032" stop-color="#FEFBA5"/>
<stop offset="0.6607" stop-color="#FAF096"/>
<stop offset="0.7238" stop-color="#F3DD7D"/>
<stop offset="0.7905" stop-color="#EAC45A"/>
<stop offset="0.8437" stop-color="#E1AB39"/>
<stop offset="0.8874" stop-color="#D7A136"/>
<stop offset="0.9613" stop-color="#BD882D"/>
<stop offset="1" stop-color="#AC7828"/>
</linearGradient>
<clipPath id="clip0_60_2775">
<rect width="56" height="31" fill="white"/>
</clipPath>
</defs>
</svg>
