<svg width="120" height="140" viewBox="0 0 120 140" fill="none" xmlns="http://www.w3.org/2000/svg">
<g filter="url(#filter0_d_200_1147)">
<path d="M39.9851 67.7913C39.9851 68.1135 39.8455 68.6936 39.5662 69.5315C39.2009 70.5413 38.825 71.261 38.4382 71.6907C37.5789 71.2395 36.7302 70.7776 35.8923 70.3049C34.7107 69.6389 34.1199 69.134 34.1199 68.7903C34.1199 68.6614 34.3455 68.0491 34.7966 66.9534C35.2478 65.8362 35.5701 65.2776 35.7634 65.2776C38.5779 66.4807 39.9851 67.3186 39.9851 67.7913ZM33.5076 69.6604C33.5076 70.1975 33.3787 70.842 33.1208 71.594C32.7986 72.4963 32.4333 72.9475 32.0251 72.9475C31.8318 72.9475 31.0476 72.5286 29.6726 71.6907C28.1902 70.8098 27.449 70.1868 27.449 69.8215C27.449 69.4778 27.9753 68.1565 29.0281 65.8577C29.6511 66.4807 30.6716 67.2112 32.0896 68.0491C33.0349 68.5862 33.5076 69.1233 33.5076 69.6604ZM50.7488 89.4475C47.3113 89.5764 44.5291 88.4807 42.4021 86.1604C41.7576 85.4514 40.9949 84.2375 40.114 82.5188C39.5125 81.3157 38.8894 80.6926 38.2449 80.6497C37.3855 80.5852 36.2361 81.1868 34.7966 82.4543C33.3787 83.7004 32.4011 84.9143 31.864 86.0959C30.9402 88.3948 30.0056 90.6936 29.0603 92.9924C28.0505 95.1409 26.8474 96.2151 25.4509 96.2151C23.7322 96.2151 22.196 95.0764 20.8425 92.7991C19.4246 90.3713 18.7156 87.4065 18.7156 83.9045C18.7156 82.5081 18.9197 80.6282 19.3279 78.2649C19.4783 77.384 19.6824 76.9436 19.9402 76.9436C20.2195 76.9436 20.3376 77.4485 20.2947 78.4583C20.2732 79.2747 20.2195 80.1877 20.1335 81.1975C20.0906 81.9709 20.0691 82.6047 20.0691 83.0989C20.0691 85.0969 20.4236 87.052 21.1326 88.9641C22.0134 91.4133 23.1951 92.6379 24.6775 92.6379C25.9666 92.6379 27.0193 91.886 27.8357 90.3821C28.5876 88.5774 29.3289 86.7834 30.0593 85.0002C31.155 82.4221 32.4763 80.3167 34.0232 78.6838C35.7419 76.8577 37.3855 75.9446 38.9539 75.9446C39.7488 75.9446 40.5867 76.6536 41.4675 78.0715C42.8425 80.3274 43.616 81.552 43.7878 81.7454C45.6355 83.8723 47.9558 84.9358 50.7488 84.9358V89.4475ZM24.0974 52.8704C25.5154 53.1067 26.9226 54.0627 28.3191 55.7385C28.7058 56.426 28.8992 56.9094 28.8992 57.1887C28.5125 58.8 28.1042 59.6057 27.6746 59.6057V59.6702C27.2664 59.5842 26.4285 59.4446 25.1609 59.2512C24.1511 61.2278 22.4539 62.7102 20.0691 63.6985L19.908 63.9241V64.1174C19.908 64.3323 20.488 64.4612 21.6482 64.5042H21.7771C23.2166 64.5042 25.4724 64.1174 28.5447 63.344L28.6091 63.4729C26.9548 64.762 25.1609 65.5784 23.2273 65.9221C22.7117 66.1155 21.9919 66.2122 21.0681 66.2122C19.7791 66.2122 19.1345 65.761 19.1345 64.8586V64.762C19.1345 63.4514 20.1335 62.259 22.1316 61.1848C23.0125 60.5833 23.7537 59.8958 24.3552 59.1223C22.9373 58.8215 22.2283 58.2415 22.2283 57.3821C22.2283 56.759 22.4216 56.0393 22.8083 55.2229C22.7009 54.8792 22.6472 54.5461 22.6472 54.2239V54.1594C22.6472 53.429 23.1306 52.9993 24.0974 52.8704ZM23.0662 56.5442V56.8987C23.324 57.2639 23.947 57.4465 24.9353 57.4465L25.032 57.0276C25.032 56.0178 24.7849 55.5129 24.2908 55.5129H24.2263C23.9255 55.5129 23.5388 55.8567 23.0662 56.5442ZM25.9343 55.8674V56.0286C25.9343 56.6516 25.8699 57.2209 25.741 57.7366C26.9656 57.887 27.6853 57.9836 27.9001 58.0266V57.8977C27.9001 57.2747 27.2449 56.5979 25.9343 55.8674ZM37.3748 84.678C36.5369 87.342 36.1179 89.0393 36.1179 89.7698C36.1179 90.887 36.3972 91.4456 36.9558 91.4456C37.364 91.4456 37.8044 90.9514 38.2771 89.9631H38.3416L38.4382 90.092C38.0515 92.176 37.4929 93.218 36.7625 93.218H36.5046C35.9675 93.218 35.5916 92.8635 35.3767 92.1545C35.3337 91.8538 35.3123 91.6174 35.3123 91.4456V90.5754C35.3123 88.8567 35.9568 86.8909 37.2458 84.678H37.3748ZM46.5271 66.6956C45.4314 70.1975 44.8835 72.4211 44.8835 73.3665C44.8835 74.8489 45.2488 75.5901 45.9792 75.5901C46.5164 75.5901 47.0964 74.9348 47.7195 73.6243H47.7839L47.9128 73.8176C47.4187 76.5461 46.6882 77.9104 45.7214 77.9104H45.3992C44.6902 77.9104 44.196 77.4485 43.9167 76.5247C43.8523 76.1165 43.8201 75.8049 43.8201 75.5901V74.4299C43.8201 72.1741 44.6687 69.5959 46.366 66.6956H46.5271ZM66.9587 89.4475C63.0916 89.4475 60.3953 86.2893 58.8699 79.9729C58.5906 83.3459 57.5486 85.8596 55.7439 87.5139C54.3474 88.803 52.6824 89.4475 50.7488 89.4475V84.9358C52.3171 84.9358 53.7888 84.6135 55.1638 83.969C56.5388 83.3245 57.28 82.5833 57.3875 81.7454C57.5808 80.0911 57.6238 78.0823 57.5164 75.719C57.4304 73.678 57.2693 71.7874 57.033 70.0471C56.5173 65.8792 55.6365 59.2512 54.3904 50.1633C53.6814 45.5012 53.3162 42.8157 53.2947 42.1067C53.3376 42.4719 53.6062 41.1292 54.1003 38.0784C54.1863 37.9495 54.283 37.885 54.3904 37.885C55.0564 37.885 55.9802 41.634 57.1619 49.1321C57.9568 54.1379 58.655 59.595 59.2566 65.5032C59.5789 68.7043 59.9011 71.9163 60.2234 75.1389C60.6316 78.4045 61.6306 80.9504 63.2205 82.7766C64.4666 84.2161 65.7126 84.9358 66.9587 84.9358V89.4475ZM60.0623 90.1887H60.5457C61.3621 90.1887 61.8455 90.7043 61.9958 91.7356V92.4124C61.9958 94.4963 60.3201 96.8489 56.9685 99.47L56.4851 99.5667V99.47C59.1277 96.5911 60.449 94.7219 60.449 93.8625V93.7659C60.449 93.3792 60.2556 93.0891 59.8689 92.8958H58.9988C58.7625 92.8958 58.408 93.0569 57.9353 93.3792C57.8064 93.3792 57.7419 93.2825 57.7419 93.0891C58.0857 91.1555 58.8591 90.1887 60.0623 90.1887ZM102.666 73.5598C102.73 74.0969 102.762 74.6018 102.762 75.0745C102.762 76.6858 102.182 78.4797 101.022 80.4563C98.9597 82.5188 96.1667 84.3342 92.6433 85.9026C89.2273 87.428 86.3914 88.1907 84.1355 88.1907C81.7937 88.1907 79.9783 87.804 78.6892 87.0305C78.1951 88.1262 77.8513 89.0286 77.658 89.7375C77.5291 90.2102 77.3679 90.4465 77.1746 90.4465C76.9597 90.4465 76.8953 90.092 76.9812 89.3831C77.0886 88.6096 77.3142 87.5676 77.658 86.2571C76.949 85.5481 76.197 84.4309 75.4021 82.9055C73.9197 85.0754 72.7917 86.5256 72.0183 87.2561C70.4929 88.717 68.8171 89.4475 66.991 89.4475V84.9358C69.032 84.9358 70.5681 84.6243 71.5994 84.0012C72.781 83.2922 74.2097 81.4983 75.8855 78.6194C76.1433 78.1682 76.4011 77.9426 76.6589 77.9426C76.8523 77.9426 76.949 78.1145 76.949 78.4583C76.949 78.5872 76.9382 78.7375 76.9167 78.9094C76.9167 79.0813 76.8845 79.4573 76.8201 80.0374C77.4001 81.0686 78.1521 81.885 79.0759 82.4866C80.2791 79.7366 81.7937 77.094 83.6199 74.5588C85.4031 72.1311 86.9607 70.4983 88.2927 69.6604C89.9255 68.6506 91.7517 68.1458 93.7712 68.1458C98.0037 68.1458 100.969 69.9504 102.666 73.5598ZM100.893 77.0725C99.6257 75.4182 97.9607 74.1184 95.8982 73.1731C94.3298 72.4426 93.0085 72.0774 91.9343 72.0774C90.1726 72.0774 88.1746 73.2483 85.9402 75.5901C84.0281 77.6096 82.2234 80.1448 80.5261 83.1956C81.7292 83.6252 83.3621 83.8401 85.4246 83.8401C87.2937 83.8401 89.9041 83.1418 93.2556 81.7454C96.7791 80.2629 99.325 78.7053 100.893 77.0725ZM95.157 92.1223C96.0808 92.2083 96.5427 92.6702 96.5427 93.5081V93.7659C96.5427 95.5061 95.2966 96.8918 92.8044 97.9231C92.1384 98.2024 91.3757 98.342 90.5164 98.342L88.3894 97.9231C86.3054 97.9231 83.8025 99.6096 80.8806 102.983C79.3337 104.508 78.0769 105.271 77.1101 105.271C77.1101 105.357 76.7341 105.464 75.9822 105.593V105.496C75.9822 105.432 77.1208 104.648 79.3982 103.144C80.0427 102.65 81.4607 101.124 83.6521 98.5676C85.7146 96.6125 87.3796 95.635 88.6472 95.635H90.2585C92.45 93.2932 94.0613 92.1223 95.0925 92.1223H95.157ZM90.9998 95.8928L91.1609 95.9573H91.322C92.74 95.9573 94.158 95.4631 95.5759 94.4749L95.6726 94.3137C95.4363 93.9485 95.0818 93.7659 94.6091 93.7659H94.2546C93.5242 93.7659 92.4392 94.4749 90.9998 95.8928ZM74.3386 65.0198C73.2429 68.5217 72.6951 70.7454 72.6951 71.6907C72.6951 73.1731 73.0603 73.9143 73.7908 73.9143C74.3279 73.9143 74.908 73.259 75.531 71.9485H75.5955L75.7244 72.1418C75.2302 74.8704 74.4998 76.2346 73.533 76.2346H73.2107C72.5017 76.2346 72.0076 75.7727 71.7283 74.8489C71.6638 74.4407 71.6316 74.1292 71.6316 73.9143V72.7542C71.6316 70.4983 72.4802 67.9202 74.1775 65.0198H74.3386ZM101.312 50.679C100.045 54.7395 99.4109 57.3176 99.4109 58.4133C99.4109 60.1106 99.8406 60.9592 100.7 60.9592C101.302 60.9592 101.968 60.2073 102.698 58.7034H102.795L102.956 58.8967C102.354 62.0764 101.495 63.6663 100.378 63.6663H99.991C99.1746 63.6663 98.6052 63.1292 98.283 62.0549C98.2185 61.6038 98.1863 61.2385 98.1863 60.9592V59.6379C98.1863 57.0383 99.1638 54.052 101.119 50.679H101.312Z" fill="white"/>
</g>
<g filter="url(#filter1_d_200_1147)">
<circle cx="60.028" cy="75.0834" r="55.972" stroke="white" stroke-width="2" stroke-linecap="round" stroke-dasharray="19 19" shape-rendering="crispEdges"/>
</g>
<defs>
<filter id="filter0_d_200_1147" x="15.7156" y="37.885" width="90.2402" height="74.708" filterUnits="userSpaceOnUse" color-interpolation-filters="sRGB">
<feFlood flood-opacity="0" result="BackgroundImageFix"/>
<feColorMatrix in="SourceAlpha" type="matrix" values="0 0 0 0 0 0 0 0 0 0 0 0 0 0 0 0 0 0 127 0" result="hardAlpha"/>
<feOffset dy="4"/>
<feGaussianBlur stdDeviation="1.5"/>
<feComposite in2="hardAlpha" operator="out"/>
<feColorMatrix type="matrix" values="0 0 0 0 0 0 0 0 0 0 0 0 0 0 0 0 0 0 0.25 0"/>
<feBlend mode="normal" in2="BackgroundImageFix" result="effect1_dropShadow_200_1147"/>
<feBlend mode="normal" in="SourceGraphic" in2="effect1_dropShadow_200_1147" result="shape"/>
</filter>
<filter id="filter1_d_200_1147" x="0.0559082" y="18.1113" width="119.944" height="120.944" filterUnits="userSpaceOnUse" color-interpolation-filters="sRGB">
<feFlood flood-opacity="0" result="BackgroundImageFix"/>
<feColorMatrix in="SourceAlpha" type="matrix" values="0 0 0 0 0 0 0 0 0 0 0 0 0 0 0 0 0 0 127 0" result="hardAlpha"/>
<feOffset dy="4"/>
<feGaussianBlur stdDeviation="1.5"/>
<feComposite in2="hardAlpha" operator="out"/>
<feColorMatrix type="matrix" values="0 0 0 0 0 0 0 0 0 0 0 0 0 0 0 0 0 0 0.25 0"/>
<feBlend mode="normal" in2="BackgroundImageFix" result="effect1_dropShadow_200_1147"/>
<feBlend mode="normal" in="SourceGraphic" in2="effect1_dropShadow_200_1147" result="shape"/>
</filter>
</defs>
</svg>
