<svg width="21" height="22" viewBox="0 0 21 22" fill="none" xmlns="http://www.w3.org/2000/svg">
<path d="M17.2395 8.06565V3.92929H13.2731L10.4832 0.959595L7.69331 3.92929H3.76054V8.06565L0.937012 11L3.76054 13.9343V18.1061H7.69331L10.4832 21.0404L13.2731 18.1061H17.2395V13.9343L20.0294 11L17.2395 8.06565Z" fill="white"/>
<path d="M16.8699 11L14.9875 12.9798V15.7374H12.3657L10.4833 17.7172L8.63457 15.7374H6.01272V12.9798L4.13037 11L6.01272 9.05555V6.29797H8.63457L10.4833 4.31818L12.3657 6.29797H14.9875V9.05555L16.8699 11Z" fill="#049C78" fill-opacity="0.26"/>
<path d="M10.4832 21.5C10.3824 21.5 10.2815 21.4646 10.1807 21.3586L7.52521 18.5303H3.7605C3.52521 18.5303 3.32353 18.3182 3.32353 18.0707V14.1111L0.634454 11.3182C0.567227 11.2475 0.5 11.1061 0.5 11C0.5 10.8939 0.533613 10.7879 0.634454 10.6818L3.32353 7.88889V3.92929C3.32353 3.68182 3.52521 3.4697 3.7605 3.4697H7.52521L10.1807 0.641414C10.2479 0.570707 10.3824 0.5 10.4832 0.5C10.584 0.5 10.6849 0.535354 10.7857 0.641414L13.4412 3.4697H17.2059C17.4412 3.4697 17.6429 3.68182 17.6429 3.92929V7.88889L20.3319 10.6818C20.3992 10.7525 20.4664 10.8939 20.4664 11C20.4664 11.1061 20.4328 11.2121 20.3319 11.3182L17.6429 14.1111V18.0707C17.6429 18.3182 17.4412 18.5303 17.2059 18.5303H13.4412L10.7857 21.3586C10.6849 21.4646 10.584 21.5 10.4832 21.5ZM4.16387 17.6818H7.69328C7.79412 17.6818 7.89496 17.7172 7.9958 17.8232L10.4832 20.4394L12.9706 17.8232C13.0378 17.7525 13.1723 17.6818 13.2731 17.6818H16.8025V13.9343C16.8025 13.8283 16.8361 13.7222 16.937 13.6162L19.4244 11L16.9706 8.41919C16.9034 8.34848 16.8361 8.20707 16.8361 8.10101V4.35354H13.2731C13.1723 4.35354 13.0714 4.31818 12.9706 4.21212L10.4832 1.59596L7.9958 4.21212C7.92857 4.28283 7.79412 4.35354 7.69328 4.35354H4.16387V8.06566C4.16387 8.17172 4.13025 8.27778 4.02941 8.38384L1.54202 11L4.02941 13.6162C4.09664 13.6869 4.16387 13.8283 4.16387 13.9343V17.6818Z" fill="#078567"/>
<path d="M10.4831 18.1414C10.3823 18.1414 10.2814 18.1061 10.1806 18L8.43267 16.197H5.97889C5.7436 16.197 5.54192 15.9849 5.54192 15.7374V13.1566L3.79402 11.3182C3.62595 11.1414 3.62595 10.8586 3.79402 10.6818L5.54192 8.84346V6.26265C5.54192 6.01517 5.7436 5.80305 5.97889 5.80305H8.43267L10.1806 3.96467C10.3486 3.7879 10.6175 3.7879 10.7856 3.96467L12.5335 5.80305H14.9873C15.2226 5.80305 15.4243 6.01517 15.4243 6.26265V8.84346L17.1722 10.6818C17.3402 10.8586 17.3402 11.1414 17.1722 11.3182L15.4243 13.1566V15.7374C15.4243 15.9849 15.2226 16.197 14.9873 16.197H12.5335L10.7856 18.0354C10.6848 18.1061 10.5839 18.1414 10.4831 18.1414ZM6.41587 15.3132H8.63436C8.7352 15.3132 8.83604 15.3485 8.93688 15.4546L10.5167 17.1162L12.0965 15.4546C12.1638 15.3839 12.2982 15.3132 12.3991 15.3132H14.6175V12.9798C14.6175 12.8738 14.6512 12.7677 14.752 12.6616L16.3318 11L14.752 9.33841C14.6848 9.2677 14.6175 9.12628 14.6175 9.02022V6.68689H12.3991C12.2982 6.68689 12.1974 6.65154 12.0965 6.54548L10.5167 4.88386L8.93688 6.54548C8.86965 6.61618 8.7352 6.68689 8.63436 6.68689H6.41587V9.02022C6.41587 9.12628 6.38225 9.23234 6.28141 9.33841L4.70158 11L6.28141 12.6616C6.34864 12.7323 6.41587 12.8738 6.41587 12.9798V15.3132Z" fill="#078567"/>
</svg>
