<svg width="45" height="42" viewBox="0 0 45 42" fill="none" xmlns="http://www.w3.org/2000/svg">
<path d="M21.8389 15.7798H18.5723V17.5376H21.5801C21.8014 17.5376 21.9658 17.5881 22.0732 17.689C22.1839 17.7866 22.2393 17.9168 22.2393 18.0796C22.2393 18.2424 22.1855 18.3758 22.0781 18.48C21.9707 18.5809 21.8047 18.6313 21.5801 18.6313H18.5723V20.6675H21.9512C22.179 20.6675 22.3499 20.7212 22.4639 20.8286C22.5811 20.9328 22.6396 21.0728 22.6396 21.2485C22.6396 21.4178 22.5811 21.5562 22.4639 21.6636C22.3499 21.7677 22.179 21.8198 21.9512 21.8198H18.0107C17.695 21.8198 17.4671 21.7498 17.3271 21.6099C17.1904 21.4699 17.1221 21.2437 17.1221 20.9312V15.5503C17.1221 15.342 17.153 15.1727 17.2148 15.0425C17.2767 14.909 17.3727 14.813 17.5029 14.7544C17.6364 14.6925 17.8057 14.6616 18.0107 14.6616H21.8389C22.07 14.6616 22.2409 14.7137 22.3516 14.8179C22.4655 14.9188 22.5225 15.0522 22.5225 15.2183C22.5225 15.3875 22.4655 15.5243 22.3516 15.6284C22.2409 15.7293 22.07 15.7798 21.8389 15.7798ZM24.9102 17.2593V17.4204C25.1445 17.1112 25.4001 16.8849 25.6768 16.7417C25.9567 16.5952 26.2773 16.522 26.6387 16.522C26.9902 16.522 27.3044 16.5985 27.5811 16.7515C27.8577 16.9045 28.0645 17.1209 28.2012 17.4009C28.2891 17.5636 28.346 17.7394 28.3721 17.9282C28.3981 18.117 28.4111 18.3579 28.4111 18.6509V21.1313C28.4111 21.3983 28.3493 21.6001 28.2256 21.7368C28.1051 21.8735 27.9473 21.9419 27.752 21.9419C27.5534 21.9419 27.3923 21.8719 27.2686 21.7319C27.1449 21.592 27.083 21.3918 27.083 21.1313V18.9097C27.083 18.4702 27.0212 18.1349 26.8975 17.9038C26.777 17.6694 26.5345 17.5522 26.1699 17.5522C25.9323 17.5522 25.7158 17.6239 25.5205 17.7671C25.3252 17.9071 25.182 18.1007 25.0908 18.3481C25.0257 18.5467 24.9932 18.9178 24.9932 19.4614V21.1313C24.9932 21.4015 24.9297 21.605 24.8027 21.7417C24.679 21.8752 24.5179 21.9419 24.3193 21.9419C24.1273 21.9419 23.9694 21.8719 23.8457 21.7319C23.722 21.592 23.6602 21.3918 23.6602 21.1313V17.2788C23.6602 17.0249 23.7155 16.8361 23.8262 16.7124C23.9368 16.5854 24.0882 16.522 24.2803 16.522C24.3975 16.522 24.5033 16.5496 24.5977 16.605C24.6921 16.6603 24.7669 16.7433 24.8223 16.854C24.8809 16.9647 24.9102 17.0998 24.9102 17.2593Z" fill="#292929" fill-opacity="0.7"/>
<g clip-path="url(#clip0_29_2838)">
<path d="M39.7658 0.633057H19.0825H15.0678C12.1966 0.633057 9.83352 3.00876 9.83352 5.89536V18.5147H9.80811V20.5072H9.83352V21.9888C9.83352 23.3172 10.3163 24.5178 11.1294 25.463C11.1294 25.463 12.2982 27.1745 15.0678 27.2767H27.6201H29.602H32.0159L39.1559 33.4075C39.3338 33.5608 39.5625 33.6374 39.7912 33.6374C39.9436 33.6374 40.0707 33.6119 40.1977 33.5352C40.5534 33.382 40.7821 33.0243 40.7821 32.6412V27.1745C43.196 26.7147 45.0255 24.5689 45.0255 21.9888V5.89536C45.0001 3.00876 42.6624 0.633057 39.7658 0.633057ZM43.0436 21.9888C43.0436 23.8025 41.5698 25.2586 39.7912 25.2586C39.2576 25.2586 38.8002 25.6929 38.8002 26.2549V30.4443L33.0323 25.4885C32.8544 25.3352 32.6257 25.2586 32.397 25.2586H15.1187C13.3146 25.2586 11.8663 23.777 11.8663 21.9888V5.89536C11.8663 4.08165 13.34 2.62558 15.1187 2.62558H39.8166C41.6206 2.62558 43.069 4.1072 43.069 5.89536V21.9888H43.0436Z" fill="#292929" fill-opacity="0.7"/>
<path d="M0 13.9421V30.0356C0 32.5901 1.82948 34.7359 4.24337 35.2212V40.6879C4.24337 41.0711 4.47205 41.4287 4.82778 41.582C4.95483 41.6331 5.10728 41.6842 5.23433 41.6842C5.46302 41.6842 5.6917 41.6075 5.86957 41.4543L13.0096 35.3234H15.4235H17.4054H29.9577C32.7273 35.2468 33.8961 33.5097 33.8961 33.5097C34.7092 32.5901 35.192 31.3639 35.192 30.0356V28.554H35.2174V26.5614H35.192V13.9421C35.192 11.03 32.8543 8.67981 29.9577 8.67981H25.9176H5.23433C2.36307 8.67981 0 11.03 0 13.9421ZM1.98193 13.9421C1.98193 12.1284 3.45567 10.6723 5.23433 10.6723H29.9322C31.7363 10.6723 33.1846 12.154 33.1846 13.9421V30.0356C33.1846 31.8493 31.7109 33.3054 29.9322 33.3054H12.6539C12.4252 33.3054 12.1965 33.382 12.0186 33.5353L6.25071 38.491V34.3016C6.25071 33.7652 5.81875 33.3054 5.25974 33.3054C3.45568 33.3054 2.00734 31.8237 2.00734 30.0356V13.9421H1.98193Z" fill="#049C78"/>
</g>
<defs>
<clipPath id="clip0_29_2838">
<rect width="45" height="41" fill="white" transform="translate(0 0.633057)"/>
</clipPath>
</defs>
</svg>
