<svg width="37" height="38" viewBox="0 0 37 38" fill="none" xmlns="http://www.w3.org/2000/svg">
<g clip-path="url(#clip0_148_1579)">
<path d="M33.1957 1.26807H3.43945C2.0332 1.26807 0.908203 2.42432 0.908203 3.86963V34.5103C0.908203 35.8978 2.0332 37.1118 3.43945 37.1118H33.0832C34.4894 37.1118 35.6144 35.9556 35.6144 34.5103V3.81182C35.727 2.42432 34.602 1.26807 33.1957 1.26807ZM11.202 31.7353H6.0832V14.6806H11.202V31.7353ZM8.61445 12.3103C6.92695 12.3103 5.6332 10.9228 5.6332 9.24619C5.6332 7.56963 6.9832 6.18213 8.61445 6.18213C10.2457 6.18213 11.5957 7.56963 11.5957 9.24619C11.5957 10.9228 10.3582 12.3103 8.61445 12.3103ZM30.6082 31.7353H25.4895V23.4681C25.4895 21.5024 25.4332 18.9009 22.7895 18.9009C20.0895 18.9009 19.6957 21.0978 19.6957 23.2946V31.7353H14.577V14.6806H19.5832V17.0509H19.6395C20.3707 15.6634 22.002 14.2759 24.5332 14.2759C29.7645 14.2759 30.7207 17.7446 30.7207 22.4853V31.7353H30.6082Z" fill="white"/>
</g>
<defs>
<clipPath id="clip0_148_1579">
<rect width="36" height="37" fill="white" transform="translate(0.289551 0.689941)"/>
</clipPath>
</defs>
</svg>
