<svg width="49" height="34" viewBox="0 0 49 34" fill="none" xmlns="http://www.w3.org/2000/svg">
<path d="M47.7114 5.78218C47.1646 3.71499 45.5239 2.10718 43.4146 1.57124C39.6646 0.575928 24.5083 0.575928 24.5083 0.575928C24.5083 0.575928 9.35205 0.575928 5.60205 1.57124C3.49268 2.10718 1.85205 3.71499 1.30518 5.78218C0.289551 9.53374 0.289551 17.19 0.289551 17.19C0.289551 17.19 0.289551 24.9228 1.30518 28.5978C1.85205 30.665 3.49268 32.2728 5.60205 32.8087C9.35205 33.8041 24.5083 33.8041 24.5083 33.8041C24.5083 33.8041 39.6646 33.8041 43.4146 32.8087C45.5239 32.2728 47.1646 30.665 47.7114 28.5978C48.7271 24.9228 48.7271 17.19 48.7271 17.19C48.7271 17.19 48.7271 9.53374 47.7114 5.78218ZM19.6646 24.3103V10.0697L32.2427 17.19L19.6646 24.3103Z" fill="white"/>
</svg>
