<svg width="276" height="184" viewBox="0 0 276 184" fill="none" xmlns="http://www.w3.org/2000/svg">
<path d="M241.095 78.1813C241.095 76.9364 241.344 75.6915 241.344 74.4465C241.344 44.0703 216.661 19.6698 186.493 19.6698C165.8 19.6698 148.098 31.1231 138.623 47.8051C131.892 45.0663 124.661 43.3234 116.932 43.3234C94.7427 43.3234 75.7941 56.5196 67.0679 75.4425C41.1383 79.6752 21.6912 102.084 21.6912 129.223C21.6912 159.599 46.3741 184 76.5421 184H221.149C251.567 184 276 159.35 276 129.223C276 105.819 261.539 86.1488 241.095 78.1813Z" fill="#292929" fill-opacity="0.06"/>
<path d="M219.404 58.5115C219.404 57.2666 219.653 56.0217 219.653 54.7767C219.653 24.4005 194.97 0 164.802 0C144.108 0 126.407 11.4533 116.932 28.1353C110.201 25.3965 102.97 23.6536 95.2412 23.6536C73.0515 23.6536 54.103 36.8498 45.3767 55.7727C19.4472 60.2544 0 82.6631 0 109.553C0 139.93 24.6829 164.33 54.851 164.33H199.458C229.875 164.33 254.309 139.681 254.309 109.553C254.309 86.3978 239.848 66.479 219.404 58.5115Z" fill="white"/>
<path d="M154.331 139.93C153.333 139.93 152.585 139.681 151.588 139.183L127.404 126.484C127.154 126.235 126.905 126.235 126.656 126.484L102.472 139.183C100.477 140.179 98.233 139.93 96.2385 138.685C94.4932 137.44 93.4959 135.199 93.9946 132.958L98.7317 106.068C98.7317 105.819 98.7317 105.57 98.4824 105.321L79.0352 86.3978C77.5393 84.9039 76.7913 82.663 77.5393 80.4222C78.2872 78.1813 80.0325 76.6874 82.2764 76.4384L109.203 72.4547C109.453 72.4547 109.702 72.2057 109.951 71.9567L121.919 47.5561C122.916 45.5643 124.911 44.3193 127.154 44.3193C129.398 44.3193 131.393 45.5643 132.39 47.5561L144.358 71.9567C144.607 72.2057 144.607 72.4547 145.106 72.4547L172.033 76.4384C174.276 76.6874 176.022 78.1813 176.77 80.4222C177.518 82.663 177.019 84.9039 175.274 86.3978L155.827 105.321C155.577 105.57 155.577 105.819 155.577 106.068L160.314 132.958C160.813 135.199 159.816 137.44 158.07 138.685C156.824 139.681 155.577 139.93 154.331 139.93ZM127.154 121.505C128.152 121.505 128.9 121.754 129.897 122.252L154.081 134.95C154.58 135.199 154.829 134.95 155.079 134.95C155.328 134.95 155.577 134.452 155.328 134.203L150.591 107.064C150.341 105.072 150.84 103.329 152.336 101.835L171.783 82.912C172.033 82.663 172.033 82.1651 172.033 81.9161C172.033 81.6671 171.783 81.4181 171.285 81.4181L144.358 77.4344C142.363 77.1854 140.867 75.9404 139.87 74.1975L127.902 49.797C127.653 49.299 127.404 49.299 127.154 49.299C126.905 49.299 126.656 49.299 126.406 49.797L114.439 74.1975C113.691 75.9404 111.946 77.1854 109.951 77.4344L83.0244 81.4181C82.5257 81.4181 82.2764 81.9161 82.2764 81.9161C82.2764 82.1651 82.2764 82.4141 82.5257 82.912L101.973 101.835C103.469 103.08 103.967 105.072 103.718 107.064L98.981 133.954C98.981 134.452 99.2303 134.701 99.2303 134.701C99.4797 134.701 99.729 134.95 100.228 134.701L124.412 122.003C125.16 121.754 126.157 121.505 127.154 121.505Z" fill="#D0A93A"/>
</svg>
